<svg xmlns="http://www.w3.org/2000/svg" xmlns:xlink="http://www.w3.org/1999/xlink" viewBox="0 0 91.52604748510545 91.52604748510545" height="91.52604748510545" width="91.52604748510545" data-background-color="#282634" preserveAspectRatio="xMidYMid meet" id="tight-bounds"><g><svg viewBox="0 0 91.52604748510545 91.52604748510545" height="91.52604748510545" width="91.52604748510545"><g><svg viewBox="0 0 91.52604748510545 91.52604748510545" height="91.52604748510545" width="91.52604748510545"><g id="textblocktransform"><svg viewBox="0 0 91.52604748510545 91.52604748510545" height="91.52604748510545" width="91.52604748510545" id="textblock"><g><svg viewBox="0 0 91.52604748510545 91.52604748510545" height="91.52604748510545" width="91.52604748510545"><g><svg viewBox="0 0 91.52604748510545 91.52604748510545" height="91.52604748510545" width="91.52604748510545"><g><svg/></g><g id="icon-0"><svg viewBox="0 0 91.52604748510545 91.52604748510545" height="91.52604748510545" width="91.52604748510545"><g><path d="M0 0" data-fill-palette-color="accent" fill="#000000" stroke="transparent"/><ellipse rx="45.3053935051272" ry="45.3053935051272" cx="45.763023742552726" cy="45.763023742552726" fill="#000000" stroke="transparent" stroke-width="0" fill-opacity="1" data-fill-palette-color="accent"/></g><g transform="matrix(1,0,0,1,16.779442455316357,24.83043725732646)"><svg viewBox="0 0 57.96716257447274 41.865172970452534" height="41.865172970452534" width="57.96716257447274"><g><svg xmlns="http://www.w3.org/2000/svg" xmlns:xlink="http://www.w3.org/1999/xlink" xmlns:a="http://ns.adobe.com/AdobeSVGViewerExtensions/3.0/" version="1.1" x="0" y="0" viewBox="0 0 90 65" enable-background="new -5 -10 100 100" xml:space="preserve" height="41.865172970452534" width="57.96716257447274" class="icon-symbol-0" data-fill-palette-color="quaternary" id="symbol-0" fill="#ffffff"><path d="M45 0C20.187 0 0 18.347 0 40.899c0 8.508 2.909 16.699 8.413 23.69C8.616 64.849 8.928 65 9.258 65h71.485c0.329 0 0.641-0.151 0.845-0.41C87.092 57.599 90 49.406 90 40.899 90 18.347 69.813 0 45 0zM80.216 62.858l-12.084-0.136H51.43L35.621 18.508c-0.179-0.501-0.701-0.795-1.222-0.69-0.523 0.104-0.89 0.575-0.862 1.105l2.3 43.799H15.715l-5.931 0.136c-4.998-6.52-7.636-14.101-7.636-21.959C2.148 19.529 21.372 2.142 45 2.142c23.629 0 42.852 17.387 42.852 38.758C87.852 48.758 85.214 56.339 80.216 62.858z" fill="#ffffff" data-fill-palette-color="quaternary"/></svg></g></svg></g></svg></g></svg></g></svg></g></svg></g></svg></g><g/></svg></g><defs/></svg>